<?xml version="1.0" encoding="utf-8"?><!DOCTYPE svg PUBLIC "-//W3C//DTD SVG 1.1//EN" "http://www.w3.org/Graphics/SVG/1.1/DTD/svg11.dtd"><svg version="1.1" id="Ebene_1" xmlns="http://www.w3.org/2000/svg" xmlns:xlink="http://www.w3.org/1999/xlink" x="0px" y="0px" width="424.299px" height="92.508px" viewBox="0 0 424.299 92.508" enable-background="new 0 0 424.299 92.508" xml:space="preserve"><g style="fill:#3e3e3b"><rect x="105.041" y="1.541" height="6.784" width="3.015"/><rect x="100.123" y="11.171" height="3.182" width="12.814"/><rect x="95.733" y="24.902" height="6.784" width="21.769"/><rect x="0" y="38.211" width="85.177" height="6.785" id="lh"/><use xlink:href="#lh" transform="translate(128.143,0)" /><rect x="0" y="57.16" height="3.184" width="213.316"/><rect x="0" y="85.346" height="6.783" width="213.316"/><polygon points="100.123,11.171 112.937,11.171 112.937,14.354 100.123,14.354 "/><path d="M327.115,50.133l-0.991-1.26c-0.65,0.42-1.24,0.609-1.968,0.609c-0.916,0-1.604-0.324-2.118-0.935s-0.668-1.375-0.668-2.807c0-1.107,0.172-1.89,0.571-2.443c0.459-0.648,1.261-1.088,2.14-1.088c0.631,0,1.239,0.191,1.813,0.554l0.994-1.375c-0.631-0.477-1.775-0.801-2.844-0.801c-1.756,0-3.322,0.84-4.199,2.233c-0.555,0.877-0.84,1.928-0.84,3.225c0,1.586,0.533,2.884,1.524,3.839c0.879,0.84,2.043,1.2,3.455,1.2C325.264,51.086,326.295,50.762,327.115,50.133L327.115,50.133z"/><polygon points="296.506,92.508 296.506,90.752 292.117,90.752 292.117,88.061 295.418,88.061 295.418,86.381 292.098,86.381 292.098,84.053 296.068,84.053 296.373,82.393 289.998,82.393 289.998,92.508" id="e"/><use xlink:href="#e" transform="translate(-15.307,-20.598)" /><use xlink:href="#e" transform="translate(71.658,-20.598)" /><use xlink:href="#e" transform="translate(-40.367,-41.594)" /><use xlink:href="#e" transform="translate(50.775,-41.594)" /><polygon points="284.027,40.799 277.957,40.799 277.957,50.914 280.057,50.914 280.057,46.486 283.053,46.486 283.053,44.807 280.057,44.807 280.057,42.439 283.76,42.439"/><polygon points="271.201,71.91 271.201,61.795 269.064,61.795 269.064,65.707 265.59,65.707 265.59,61.795 263.473,61.795 263.473,71.91 265.59,71.91 265.59,67.406 269.064,67.406 269.064,71.91" id="h"/><use xlink:href="#h" transform="translate(65.891,-20.996)" /><rect width="2.176" x="249.801" y="61.795" height="10.112" id="i"/><use xlink:href="#i" transform="translate(96.656,0)" /><use xlink:href="#i" transform="translate(142.486,0)" /><use xlink:href="#i" transform="translate(54.597,-20.999)" /><polygon points="261.34,70.193 257.217,70.193 257.217,61.795 255.098,61.795 255.098,71.91 260.939,71.91" id="l"/><use xlink:href="#l" transform="translate(29.111,0)" /><use xlink:href="#l" transform="translate(40.887,-20.996)" /><path d="M303.539,71.91l-1.013-10.115h-2.748l-1.563,5.172c-0.211,0.668-0.439,1.623-0.478,1.984c-0.075-0.381-0.268-1.26-0.479-1.965l-1.545-5.191h-2.73l-1.067,10.115h2.1l0.42-5.631c0.058-0.744,0.115-1.736,0.115-2.119c0.094,0.459,0.324,1.49,0.514,2.119l1.699,5.631h1.813l1.795-5.727c0.211-0.687,0.459-1.564,0.535-1.908c0.02,0.399,0.057,1.279,0.112,1.967l0.439,5.668H303.539L303.539,71.91z"/><path d="M246.621,92.508l-1.164-13.209h-2.922l-2.08,7.521c-0.248,0.916-0.42,1.756-0.478,2.156c-0.076-0.4-0.19-1.088-0.496-2.195l-2.022-7.482h-2.92l-1.203,13.209h2.156l0.573-7.979c0.058-0.82,0.134-2.023,0.134-2.461c0.075,0.438,0.323,1.563,0.571,2.441l2.195,7.997h1.871l2.404-8.358c0.248-0.84,0.42-1.623,0.516-2.063c0,0.401,0.037,1.396,0.096,2.233l0.611,8.188L246.621,92.508L246.621,92.508z"/><path d="M343.336,71.91V61.795h-1.984l0.037,4.293c0,0.994,0.115,2.1,0.152,2.635c-0.189-0.516-0.554-1.393-1.086-2.348l-2.539-4.58h-2.349V71.91h2.041l-0.075-4.428c-0.019-1.031-0.037-2.215-0.076-2.844c0.151,0.42,0.707,1.604,1.242,2.596l2.461,4.676H343.336L343.336,71.91z" id="n"/><use xlink:href="#n" transform="translate(-75.859,20.598)" /><path d="M379.209,71.91l-1.394-2.043c-0.459-0.688-0.991-1.393-1.317-1.813c-0.152-0.211-0.324-0.382-0.457-0.478c1.432-0.136,2.5-1.261,2.5-2.826c0-0.896-0.361-1.681-1.049-2.252c-0.632-0.533-1.566-0.705-2.902-0.705h-3.416v10.115h2.08v-4.218c0.268,0,0.555,0.096,0.725,0.248c0.347,0.307,0.688,0.688,1.699,2.348l0.992,1.623H379.209L379.209,71.91z M374.266,63.396c0.516,0,0.898,0.059,1.223,0.153c0.572,0.173,0.857,0.609,0.857,1.222c0,0.477-0.152,0.819-0.438,1.051c-0.345,0.266-0.859,0.361-1.738,0.361h-0.916v-2.787H374.266L374.266,63.396z" id="r"/><path d="M360.076,61.795h-2.195l-2.004,4.98c-0.344,0.858-0.556,1.774-0.668,2.176c-0.097-0.361-0.363-1.336-0.688-2.195l-1.852-4.961h-2.31l3.873,10.172h1.892L360.076,61.795L360.076,61.795z"/><path d="M307.742,92.508l-1.394-2.041c-0.459-0.688-0.992-1.395-1.315-1.814c-0.152-0.209-0.324-0.381-0.46-0.477c1.433-0.135,2.5-1.26,2.5-2.826c0-0.896-0.36-1.68-1.049-2.252c-0.631-0.533-1.565-0.705-2.899-0.705h-3.418v10.115h2.08v-4.219c0.268,0,0.555,0.096,0.727,0.248c0.344,0.307,0.688,0.688,1.697,2.348l0.994,1.623H307.742L307.742,92.508z M302.799,83.996c0.516,0,0.897,0.057,1.223,0.152c0.572,0.172,0.859,0.608,0.859,1.221c0,0.477-0.154,0.82-0.439,1.051c-0.344,0.268-0.858,0.361-1.735,0.361h-0.918v-2.785H302.799L302.799,83.996z"/><path d="M278.27,89.34c0-0.744-0.266-1.393-0.744-1.871c-0.477-0.477-1.239-0.84-2.08-1.049l-1.354-0.324c-1.029-0.25-1.373-0.574-1.373-1.146c0-0.705,0.686-1.146,1.697-1.146c0.858,0,1.774,0.269,2.69,0.783l0.992-1.471c-0.916-0.629-2.404-1.031-3.74-1.031c-2.328,0-3.95,1.299-3.95,3.111c0,0.555,0.135,1.031,0.42,1.49c0.399,0.629,1.106,1.104,2.118,1.354l1.355,0.344c1.125,0.287,1.604,0.707,1.604,1.355c0,0.459-0.248,0.803-0.688,1.012c-0.363,0.172-0.783,0.268-1.375,0.268c-1.125,0-2.041-0.287-3.092-0.803l-0.765,1.623c1.185,0.592,2.464,0.896,3.742,0.896c1.088,0,2.023-0.229,2.769-0.609C277.621,91.553,278.27,90.523,278.27,89.34L278.27,89.34z" id="s"/><use xlink:href="#s" transform="translate(110.951,-20.598)" /><use xlink:href="#s" transform="translate(35.748,-20.598)" /><use xlink:href="#s" transform="translate(-11.831,-41.594)" /><use xlink:href="#s" transform="translate(39.329,-41.594)" /><polygon points="287.789,82.393 279.771,82.393 279.771,84.092 282.559,84.092 282.559,92.508 284.678,92.508 284.678,84.092 287.426,84.092" id="t"/><use xlink:href="#t" transform="translate(-12.021,-41.594)" /><use xlink:href="#t" transform="translate(116.973,-20.598)" /><use xlink:href="#t" transform="translate(136.51,-20.598)" /><path d="M332.688,68.207v-9.504h-2.194v8.875c0,1.756-0.783,2.691-2.388,2.691c-1.621,0-2.348-0.67-2.348-2.691v-8.875h-2.213v9.523c0,2.119,1.088,3.912,4.561,3.912C331.008,72.139,332.688,70.631,332.688,68.207L332.688,68.207z"/><path d="M256.449,80.369c0-0.744-0.595-1.336-1.279-1.336c-0.728,0-1.299,0.592-1.299,1.336c0,0.725,0.571,1.336,1.278,1.336C255.855,81.705,256.449,81.094,256.449,80.369L256.449,80.369z M252.439,80.369c0-0.744-0.571-1.336-1.278-1.336c-0.705,0-1.277,0.592-1.277,1.336c0,0.725,0.572,1.336,1.277,1.336C251.867,81.705,252.439,81.094,252.439,80.369L252.439,80.369z M257.422,88.996v-6.604h-2.139v6.412c0,1.012-0.113,1.315-0.382,1.643c-0.268,0.344-0.803,0.533-1.471,0.533c-0.82,0-1.432-0.306-1.697-0.84c-0.135-0.267-0.172-0.705-0.172-1.394v-6.354h-2.139v6.68c0,1.049,0.096,1.584,0.459,2.139c0.572,0.877,1.736,1.488,3.588,1.488c1.469,0,2.463-0.42,3.072-0.992C257.193,91.096,257.422,90.561,257.422,88.996L257.422,88.996z"/><path d="M247.842,58.703h-2.291l-1.258,5.992c-0.326,1.508-0.765,4.295-0.765,4.295h-0.059c0,0-0.324-2.158-0.648-3.723l-1.375-6.564h-2.461L237.611,65c-0.344,1.604-0.725,4.086-0.725,4.086h-0.059c0,0-0.248-2.1-0.705-4.238l-1.316-6.145h-2.348l3.147,13.283h2.576l1.279-6.184c0.324-1.605,0.668-3.761,0.668-3.761h0.057c0,0,0.211,1.832,0.65,3.815l1.354,6.127h2.521L247.842,58.703L247.842,58.703z" id="w"/><use xlink:href="#w" transform="translate(0,-21.003)" /><rect x="316.434" y="65.746" height="1.945" width="4.181" /><path d="M413.67,59.791c0-0.707-0.592-1.279-1.279-1.279c-0.725,0-1.299,0.572-1.299,1.279c0,0.725,0.574,1.316,1.279,1.316C413.078,61.107,413.67,60.516,413.67,59.791L413.67,59.791z M409.662,59.791c0-0.707-0.556-1.279-1.261-1.279c-0.707,0-1.299,0.572-1.299,1.279c0,0.725,0.572,1.316,1.279,1.316C409.088,61.107,409.662,60.516,409.662,59.791L409.662,59.791z M415.12,71.91l-3.606-10.154h-2.291l-3.76,10.154h2.195l0.856-2.424h3.455l0.879,2.424H415.12L415.12,71.91z M411.494,67.863h-2.443c0.172-0.611,1.127-3.568,1.24-4.141C410.387,64.295,411.303,67.215,411.494,67.863L411.494,67.863z" id="ae"/><use xlink:href="#ae" transform="translate(-121.328,-20.996)" /></g></svg>